<svg width="86" height="16" viewBox="0 0 86 16" fill="none" xmlns="http://www.w3.org/2000/svg">
<path d="M27.815 3.8H32.325L32.171 4.702H28.695L28.288 7.056H31.17L31.016 7.914H28.134L27.507 11.5H26.462L27.815 3.8ZM32.0372 11.5L33.3902 3.8H34.4352L33.0822 11.5H32.0372ZM37.1463 5.076L36.0243 11.5H35.0343L36.3873 3.8H37.7733L40.0283 10.268L41.1723 3.8H42.1623L40.8093 11.5H39.4453L37.1463 5.076ZM42.7579 11.5L44.1109 3.8H45.1559L43.8029 11.5H42.7579ZM49.539 9.553C49.539 9.34767 49.495 9.16067 49.407 8.992C49.3263 8.82333 49.176 8.651 48.956 8.475C48.736 8.29167 48.4206 8.08633 48.01 7.859C47.438 7.53633 47.031 7.21733 46.789 6.902C46.5543 6.58667 46.437 6.18333 46.437 5.692C46.437 5.28133 46.5433 4.92567 46.756 4.625C46.976 4.32433 47.2803 4.08967 47.669 3.921C48.0576 3.75233 48.505 3.668 49.011 3.668C49.473 3.668 49.891 3.72667 50.265 3.844C50.639 3.954 50.9873 4.10433 51.31 4.295L50.771 5.153C50.507 4.98433 50.2283 4.845 49.935 4.735C49.649 4.625 49.3116 4.57 48.923 4.57C48.4903 4.57 48.142 4.66533 47.878 4.856C47.614 5.03933 47.482 5.28133 47.482 5.582C47.482 5.85333 47.5736 6.09533 47.757 6.308C47.9476 6.51333 48.296 6.75167 48.802 7.023C49.286 7.27967 49.6563 7.53267 49.913 7.782C50.177 8.024 50.3566 8.28067 50.452 8.552C50.5546 8.82333 50.606 9.124 50.606 9.454C50.606 9.90133 50.4886 10.29 50.254 10.62C50.0266 10.9427 49.7076 11.192 49.297 11.368C48.8863 11.544 48.4096 11.632 47.867 11.632C47.339 11.632 46.8623 11.5623 46.437 11.423C46.0116 11.2763 45.6376 11.0747 45.315 10.818L45.997 9.971C46.2463 10.1983 46.536 10.3817 46.866 10.521C47.2033 10.653 47.5736 10.719 47.977 10.719C48.4536 10.719 48.8313 10.6163 49.11 10.411C49.396 10.1983 49.539 9.91233 49.539 9.553ZM57.0197 7.991H53.3457L52.7297 11.5H51.6847L53.0377 3.8H54.0827L53.4997 7.089H57.1737L57.7567 3.8H58.8017L57.4487 11.5H56.4037L57.0197 7.991ZM60.7505 3.8H65.3155L65.1615 4.702H61.6305L61.2235 7.045H64.2485L64.0945 7.925H61.0695L60.5965 10.598H64.1165L63.9625 11.5H59.3975L60.7505 3.8ZM66.6465 3.888C66.9471 3.822 67.2478 3.77067 67.5485 3.734C67.8491 3.69 68.2195 3.668 68.6595 3.668C69.2461 3.668 69.7448 3.75967 70.1555 3.943C70.5735 4.12633 70.9145 4.37933 71.1785 4.702C71.4425 5.01733 71.6368 5.38033 71.7615 5.791C71.8861 6.19433 71.9485 6.61967 71.9485 7.067C71.9485 7.947 71.7725 8.73167 71.4205 9.421C71.0685 10.1103 70.5698 10.653 69.9245 11.049C69.2791 11.4377 68.5091 11.632 67.6145 11.632C67.1451 11.632 66.7271 11.599 66.3605 11.533C65.9938 11.4743 65.6601 11.39 65.3595 11.28L66.6465 3.888ZM68.5715 4.548C68.3808 4.548 68.2011 4.559 68.0325 4.581C67.8638 4.59567 67.7061 4.62133 67.5595 4.658L66.5255 10.587C66.6941 10.631 66.8738 10.6677 67.0645 10.697C67.2551 10.719 67.4605 10.73 67.6805 10.73C68.3185 10.73 68.8758 10.5797 69.3525 10.279C69.8365 9.97833 70.2105 9.56033 70.4745 9.025C70.7385 8.48233 70.8705 7.859 70.8705 7.155C70.8705 6.693 70.7898 6.264 70.6285 5.868C70.4671 5.472 70.2178 5.153 69.8805 4.911C69.5431 4.669 69.1068 4.548 68.5715 4.548Z" fill="#00C48C"/>
<path d="M12.5706 4.57141L6.28488 10.8571L3.42773 7.99998" stroke="#00C48C" stroke-linecap="round" stroke-linejoin="round"/>
</svg>
