<svg width="86" height="16" viewBox="0 0 86 16" fill="none" xmlns="http://www.w3.org/2000/svg">
<path d="M27.749 3.888C28.0497 3.822 28.3503 3.77067 28.651 3.734C28.9517 3.69 29.322 3.668 29.762 3.668C30.3487 3.668 30.8473 3.75967 31.258 3.943C31.676 4.12633 32.017 4.37933 32.281 4.702C32.545 5.01733 32.7393 5.38033 32.864 5.791C32.9887 6.19433 33.051 6.61967 33.051 7.067C33.051 7.947 32.875 8.73167 32.523 9.421C32.171 10.1103 31.6723 10.653 31.027 11.049C30.3817 11.4377 29.6117 11.632 28.717 11.632C28.2477 11.632 27.8297 11.599 27.463 11.533C27.0963 11.4743 26.7627 11.39 26.462 11.28L27.749 3.888ZM29.674 4.548C29.4833 4.548 29.3037 4.559 29.135 4.581C28.9663 4.59567 28.8087 4.62133 28.662 4.658L27.628 10.587C27.7967 10.631 27.9763 10.6677 28.167 10.697C28.3577 10.719 28.563 10.73 28.783 10.73C29.421 10.73 29.9783 10.5797 30.455 10.279C30.939 9.97833 31.313 9.56033 31.577 9.025C31.841 8.48233 31.973 7.859 31.973 7.155C31.973 6.693 31.8923 6.264 31.731 5.868C31.5697 5.472 31.3203 5.153 30.983 4.911C30.6457 4.669 30.2093 4.548 29.674 4.548ZM35.0979 3.91C35.4279 3.85133 35.7359 3.80367 36.0219 3.767C36.3153 3.73033 36.6563 3.712 37.0449 3.712C37.6023 3.712 38.0716 3.8 38.4529 3.976C38.8343 4.152 39.1239 4.39033 39.3219 4.691C39.5199 4.98433 39.6189 5.31067 39.6189 5.67C39.6189 6.33733 39.4063 6.83967 38.9809 7.177C38.5556 7.51433 37.9946 7.73433 37.2979 7.837C37.5986 7.969 37.8333 8.134 38.0019 8.332C38.1706 8.52267 38.3026 8.72433 38.3979 8.937C38.4933 9.14967 38.5703 9.35867 38.6289 9.564C38.6949 9.76933 38.7646 9.95633 38.8379 10.125C38.9113 10.2937 39.0139 10.4293 39.1459 10.532C39.2853 10.6273 39.4759 10.675 39.7179 10.675L39.3329 11.577C39.0103 11.577 38.7499 11.5147 38.5519 11.39C38.3539 11.2653 38.1926 11.104 38.0679 10.906C37.9506 10.7007 37.8443 10.477 37.7489 10.235C37.6609 9.98567 37.5656 9.74 37.4629 9.498C37.3603 9.24867 37.2283 9.025 37.0669 8.827C36.9056 8.62167 36.6893 8.45667 36.4179 8.332C36.1539 8.20733 35.8129 8.145 35.3949 8.145L34.8009 11.5H33.7559L35.0979 3.91ZM36.9789 4.581C36.7883 4.581 36.6123 4.58833 36.4509 4.603C36.2969 4.61767 36.1503 4.63967 36.0109 4.669L35.5489 7.265H36.4619C37.1073 7.265 37.6206 7.133 38.0019 6.869C38.3906 6.605 38.5849 6.24933 38.5849 5.802C38.5849 5.44267 38.4419 5.14933 38.1559 4.922C37.8773 4.69467 37.4849 4.581 36.9789 4.581ZM43.7476 11.632C43.0582 11.632 42.4752 11.4817 41.9986 11.181C41.5219 10.8803 41.1589 10.477 40.9096 9.971C40.6602 9.45767 40.5356 8.88567 40.5356 8.255C40.5356 7.66833 40.6272 7.10367 40.8106 6.561C40.9939 6.011 41.2616 5.51967 41.6136 5.087C41.9729 4.647 42.4092 4.30233 42.9226 4.053C43.4359 3.79633 44.0226 3.668 44.6826 3.668C45.3719 3.668 45.9549 3.81833 46.4316 4.119C46.9082 4.41967 47.2712 4.82667 47.5206 5.34C47.7699 5.846 47.8946 6.41433 47.8946 7.045C47.8946 7.63167 47.8029 8.2 47.6196 8.75C47.4362 9.29267 47.1649 9.784 46.8056 10.224C46.4536 10.6567 46.0209 11.0013 45.5076 11.258C44.9942 11.5073 44.4076 11.632 43.7476 11.632ZM44.5946 4.57C44.1252 4.57 43.7036 4.669 43.3296 4.867C42.9629 5.065 42.6512 5.33633 42.3946 5.681C42.1379 6.02567 41.9399 6.41433 41.8006 6.847C41.6686 7.27967 41.6026 7.727 41.6026 8.189C41.6026 8.65833 41.6869 9.08733 41.8556 9.476C42.0242 9.85733 42.2736 10.1617 42.6036 10.389C42.9409 10.6163 43.3516 10.73 43.8356 10.73C44.3049 10.73 44.7229 10.631 45.0896 10.433C45.4636 10.235 45.7789 9.96367 46.0356 9.619C46.2922 9.27433 46.4866 8.88567 46.6186 8.453C46.7579 8.02033 46.8276 7.573 46.8276 7.111C46.8276 6.64167 46.7432 6.21633 46.5746 5.835C46.4059 5.44633 46.1566 5.13833 45.8266 4.911C45.4966 4.68367 45.0859 4.57 44.5946 4.57ZM49.9326 3.91C50.2113 3.85133 50.5083 3.80367 50.8236 3.767C51.1463 3.73033 51.502 3.712 51.8906 3.712C52.4846 3.712 52.9796 3.81833 53.3756 4.031C53.7716 4.23633 54.065 4.51133 54.2556 4.856C54.4536 5.19333 54.5526 5.55633 54.5526 5.945C54.5526 6.54633 54.406 7.05233 54.1126 7.463C53.8193 7.86633 53.416 8.17433 52.9026 8.387C52.3893 8.59233 51.8063 8.695 51.1536 8.695C50.9776 8.695 50.8016 8.68767 50.6256 8.673C50.457 8.651 50.2993 8.62167 50.1526 8.585L49.6466 11.5H48.6016L49.9326 3.91ZM51.7806 4.581C51.5826 4.581 51.4066 4.58833 51.2526 4.603C51.106 4.61767 50.9703 4.636 50.8456 4.658L50.3066 7.705C50.4533 7.749 50.611 7.782 50.7796 7.804C50.9556 7.81867 51.128 7.826 51.2966 7.826C52.0813 7.826 52.6496 7.661 53.0016 7.331C53.3536 7.001 53.5296 6.57933 53.5296 6.066C53.5296 5.63333 53.3756 5.27767 53.0676 4.999C52.767 4.72033 52.338 4.581 51.7806 4.581ZM56.1099 3.8H60.6749L60.5209 4.702H56.9899L56.5829 7.045H59.6079L59.4539 7.925H56.4289L55.9559 10.598H59.4759L59.3219 11.5H54.7569L56.1099 3.8ZM62.0058 3.888C62.3065 3.822 62.6072 3.77067 62.9078 3.734C63.2085 3.69 63.5788 3.668 64.0188 3.668C64.6055 3.668 65.1042 3.75967 65.5148 3.943C65.9328 4.12633 66.2738 4.37933 66.5378 4.702C66.8018 5.01733 66.9962 5.38033 67.1208 5.791C67.2455 6.19433 67.3078 6.61967 67.3078 7.067C67.3078 7.947 67.1318 8.73167 66.7798 9.421C66.4278 10.1103 65.9292 10.653 65.2838 11.049C64.6385 11.4377 63.8685 11.632 62.9738 11.632C62.5045 11.632 62.0865 11.599 61.7198 11.533C61.3532 11.4743 61.0195 11.39 60.7188 11.28L62.0058 3.888ZM63.9308 4.548C63.7402 4.548 63.5605 4.559 63.3918 4.581C63.2232 4.59567 63.0655 4.62133 62.9188 4.658L61.8848 10.587C62.0535 10.631 62.2332 10.6677 62.4238 10.697C62.6145 10.719 62.8198 10.73 63.0398 10.73C63.6778 10.73 64.2352 10.5797 64.7118 10.279C65.1958 9.97833 65.5698 9.56033 65.8338 9.025C66.0978 8.48233 66.2298 7.859 66.2298 7.155C66.2298 6.693 66.1492 6.264 65.9878 5.868C65.8265 5.472 65.5772 5.153 65.2398 4.911C64.9025 4.669 64.4662 4.548 63.9308 4.548Z" fill="#FF647C"/>
<path d="M9.71373 6.28571L6.28516 9.71428M6.28516 6.28571L9.71373 9.71428M13.7137 7.99999C13.7137 11.1559 11.1554 13.7143 7.99944 13.7143C4.84353 13.7143 2.28516 11.1559 2.28516 7.99999C2.28516 4.84408 4.84353 2.28571 7.99944 2.28571C11.1554 2.28571 13.7137 4.84408 13.7137 7.99999Z" stroke="#FF647C" stroke-linecap="round" stroke-linejoin="round"/>
</svg>
