<svg width="81" height="16" viewBox="0 0 81 16" fill="none" xmlns="http://www.w3.org/2000/svg">
<path d="M27.749 3.888C28.0497 3.822 28.3503 3.77067 28.651 3.734C28.9517 3.69 29.322 3.668 29.762 3.668C30.3487 3.668 30.8473 3.75967 31.258 3.943C31.676 4.12633 32.017 4.37933 32.281 4.702C32.545 5.01733 32.7393 5.38033 32.864 5.791C32.9887 6.19433 33.051 6.61967 33.051 7.067C33.051 7.947 32.875 8.73167 32.523 9.421C32.171 10.1103 31.6723 10.653 31.027 11.049C30.3817 11.4377 29.6117 11.632 28.717 11.632C28.2477 11.632 27.8297 11.599 27.463 11.533C27.0963 11.4743 26.7627 11.39 26.462 11.28L27.749 3.888ZM29.674 4.548C29.4833 4.548 29.3037 4.559 29.135 4.581C28.9663 4.59567 28.8087 4.62133 28.662 4.658L27.628 10.587C27.7967 10.631 27.9763 10.6677 28.167 10.697C28.3577 10.719 28.563 10.73 28.783 10.73C29.421 10.73 29.9783 10.5797 30.455 10.279C30.939 9.97833 31.313 9.56033 31.577 9.025C31.841 8.48233 31.973 7.859 31.973 7.155C31.973 6.693 31.8923 6.264 31.731 5.868C31.5697 5.472 31.3203 5.153 30.983 4.911C30.6457 4.669 30.2093 4.548 29.674 4.548ZM33.7559 11.5L35.1089 3.8H36.1539L34.8009 11.5H33.7559ZM40.537 9.553C40.537 9.34767 40.493 9.16067 40.405 8.992C40.3243 8.82333 40.174 8.651 39.954 8.475C39.734 8.29167 39.4187 8.08633 39.008 7.859C38.436 7.53633 38.029 7.21733 37.787 6.902C37.5523 6.58667 37.435 6.18333 37.435 5.692C37.435 5.28133 37.5413 4.92567 37.754 4.625C37.974 4.32433 38.2783 4.08967 38.667 3.921C39.0557 3.75233 39.503 3.668 40.009 3.668C40.471 3.668 40.889 3.72667 41.263 3.844C41.637 3.954 41.9853 4.10433 42.308 4.295L41.769 5.153C41.505 4.98433 41.2263 4.845 40.933 4.735C40.647 4.625 40.3097 4.57 39.921 4.57C39.4883 4.57 39.14 4.66533 38.876 4.856C38.612 5.03933 38.48 5.28133 38.48 5.582C38.48 5.85333 38.5717 6.09533 38.755 6.308C38.9457 6.51333 39.294 6.75167 39.8 7.023C40.284 7.27967 40.6543 7.53267 40.911 7.782C41.175 8.024 41.3547 8.28067 41.45 8.552C41.5527 8.82333 41.604 9.124 41.604 9.454C41.604 9.90133 41.4867 10.29 41.252 10.62C41.0247 10.9427 40.7057 11.192 40.295 11.368C39.8843 11.544 39.4077 11.632 38.865 11.632C38.337 11.632 37.8603 11.5623 37.435 11.423C37.0097 11.2763 36.6357 11.0747 36.313 10.818L36.995 9.971C37.2443 10.1983 37.534 10.3817 37.864 10.521C38.2013 10.653 38.5717 10.719 38.975 10.719C39.4517 10.719 39.8293 10.6163 40.108 10.411C40.394 10.1983 40.537 9.91233 40.537 9.553ZM41.9127 11.093L46.1367 3.8H47.3137L48.9967 11.379L47.9957 11.61L47.5337 9.41H43.9697L42.7487 11.588L41.9127 11.093ZM44.4647 8.53H47.3467L46.5657 4.823L44.4647 8.53ZM51.2746 3.888C51.612 3.822 51.9383 3.77067 52.2536 3.734C52.569 3.69 52.9283 3.668 53.3316 3.668C53.9256 3.668 54.4133 3.75967 54.7946 3.943C55.1833 4.119 55.473 4.35367 55.6636 4.647C55.8543 4.933 55.9496 5.241 55.9496 5.571C55.9496 6.06967 55.8103 6.47667 55.5316 6.792C55.253 7.1 54.8423 7.33467 54.2996 7.496C54.7103 7.65 55.0476 7.87 55.3116 8.156C55.5756 8.442 55.7076 8.81233 55.7076 9.267C55.7076 9.795 55.55 10.235 55.2346 10.587C54.9193 10.939 54.5013 11.203 53.9806 11.379C53.4673 11.5477 52.91 11.632 52.3086 11.632C51.788 11.632 51.3333 11.5917 50.9446 11.511C50.556 11.4377 50.2333 11.3607 49.9766 11.28L51.2746 3.888ZM53.2876 4.493C53.0603 4.493 52.8586 4.50033 52.6826 4.515C52.5066 4.52967 52.3453 4.55167 52.1986 4.581L51.7476 7.122H52.8256C53.537 7.122 54.065 6.98267 54.4096 6.704C54.7543 6.418 54.9266 6.088 54.9266 5.714C54.9266 5.36933 54.7873 5.07967 54.5086 4.845C54.2373 4.61033 53.8303 4.493 53.2876 4.493ZM51.6046 7.936L51.1426 10.609C51.5313 10.7117 51.9456 10.763 52.3856 10.763C53.1043 10.763 53.658 10.6273 54.0466 10.356C54.4426 10.0773 54.6406 9.72533 54.6406 9.3C54.6406 9.05067 54.571 8.82333 54.4316 8.618C54.2923 8.41267 54.0686 8.24767 53.7606 8.123C53.46 7.99833 53.0603 7.936 52.5616 7.936H51.6046ZM58.1187 3.8H59.1637L57.9757 10.565H61.5067L61.3417 11.5H56.7657L58.1187 3.8ZM63.7261 3.8H68.2911L68.1371 4.702H64.6061L64.1991 7.045H67.2241L67.0701 7.925H64.0451L63.5721 10.598H67.0921L66.9381 11.5H62.3731L63.7261 3.8ZM69.622 3.888C69.9227 3.822 70.2234 3.77067 70.524 3.734C70.8247 3.69 71.195 3.668 71.635 3.668C72.2217 3.668 72.7204 3.75967 73.131 3.943C73.549 4.12633 73.89 4.37933 74.154 4.702C74.418 5.01733 74.6124 5.38033 74.737 5.791C74.8617 6.19433 74.924 6.61967 74.924 7.067C74.924 7.947 74.748 8.73167 74.396 9.421C74.044 10.1103 73.5454 10.653 72.9 11.049C72.2547 11.4377 71.4847 11.632 70.59 11.632C70.1207 11.632 69.7027 11.599 69.336 11.533C68.9694 11.4743 68.6357 11.39 68.335 11.28L69.622 3.888ZM71.547 4.548C71.3564 4.548 71.1767 4.559 71.008 4.581C70.8394 4.59567 70.6817 4.62133 70.535 4.658L69.501 10.587C69.6697 10.631 69.8494 10.6677 70.04 10.697C70.2307 10.719 70.436 10.73 70.656 10.73C71.294 10.73 71.8514 10.5797 72.328 10.279C72.812 9.97833 73.186 9.56033 73.45 9.025C73.714 8.48233 73.846 7.859 73.846 7.155C73.846 6.693 73.7654 6.264 73.604 5.868C73.4427 5.472 73.1934 5.153 72.856 4.911C72.5187 4.669 72.0824 4.548 71.547 4.548Z" fill="#E4E4E4"/>
<path d="M3.42773 9.71428C3.42773 9.71428 3.99916 9.14285 5.71345 9.14285C7.42773 9.14285 8.57059 10.2857 10.2849 10.2857C11.9992 10.2857 12.5706 9.71428 12.5706 9.71428V2.85713C12.5706 2.85713 11.9992 3.42856 10.2849 3.42856C8.57059 3.42856 7.42773 2.28571 5.71345 2.28571C3.99916 2.28571 3.42773 2.85713 3.42773 2.85713V9.71428ZM3.42773 9.71428V13.7143" stroke="#E4E4E4" stroke-linecap="round" stroke-linejoin="round"/>
</svg>
