<svg width="76" height="16" viewBox="0 0 76 16" fill="none" xmlns="http://www.w3.org/2000/svg">
<path d="M27.793 3.91C28.0717 3.85133 28.3687 3.80367 28.684 3.767C29.0067 3.73033 29.3623 3.712 29.751 3.712C30.345 3.712 30.84 3.81833 31.236 4.031C31.632 4.23633 31.9253 4.51133 32.116 4.856C32.314 5.19333 32.413 5.55633 32.413 5.945C32.413 6.54633 32.2663 7.05233 31.973 7.463C31.6797 7.86633 31.2763 8.17433 30.763 8.387C30.2497 8.59233 29.6667 8.695 29.014 8.695C28.838 8.695 28.662 8.68767 28.486 8.673C28.3173 8.651 28.1597 8.62167 28.013 8.585L27.507 11.5H26.462L27.793 3.91ZM29.641 4.581C29.443 4.581 29.267 4.58833 29.113 4.603C28.9663 4.61767 28.8307 4.636 28.706 4.658L28.167 7.705C28.3137 7.749 28.4713 7.782 28.64 7.804C28.816 7.81867 28.9883 7.826 29.157 7.826C29.9417 7.826 30.51 7.661 30.862 7.331C31.214 7.001 31.39 6.57933 31.39 6.066C31.39 5.63333 31.236 5.27767 30.928 4.999C30.6273 4.72033 30.1983 4.581 29.641 4.581ZM33.9703 3.8H38.5353L38.3813 4.702H34.8503L34.4433 7.045H37.4683L37.3143 7.925H34.2893L33.8163 10.598H37.3363L37.1823 11.5H32.6173L33.9703 3.8ZM40.6912 5.076L39.5692 11.5H38.5792L39.9322 3.8H41.3182L43.5732 10.268L44.7172 3.8H45.7072L44.3542 11.5H42.9902L40.6912 5.076ZM47.5898 3.888C47.8905 3.822 48.1912 3.77067 48.4918 3.734C48.7925 3.69 49.1628 3.668 49.6028 3.668C50.1895 3.668 50.6882 3.75967 51.0988 3.943C51.5168 4.12633 51.8578 4.37933 52.1218 4.702C52.3858 5.01733 52.5802 5.38033 52.7048 5.791C52.8295 6.19433 52.8918 6.61967 52.8918 7.067C52.8918 7.947 52.7158 8.73167 52.3638 9.421C52.0118 10.1103 51.5132 10.653 50.8678 11.049C50.2225 11.4377 49.4525 11.632 48.5578 11.632C48.0885 11.632 47.6705 11.599 47.3038 11.533C46.9372 11.4743 46.6035 11.39 46.3028 11.28L47.5898 3.888ZM49.5148 4.548C49.3242 4.548 49.1445 4.559 48.9758 4.581C48.8072 4.59567 48.6495 4.62133 48.5028 4.658L47.4688 10.587C47.6375 10.631 47.8172 10.6677 48.0078 10.697C48.1985 10.719 48.4038 10.73 48.6238 10.73C49.2618 10.73 49.8192 10.5797 50.2958 10.279C50.7798 9.97833 51.1538 9.56033 51.4178 9.025C51.6818 8.48233 51.8138 7.859 51.8138 7.155C51.8138 6.693 51.7332 6.264 51.5718 5.868C51.4105 5.472 51.1612 5.153 50.8238 4.911C50.4865 4.669 50.0502 4.548 49.5148 4.548ZM53.5968 11.5L54.9498 3.8H55.9948L54.6418 11.5H53.5968ZM58.7058 5.076L57.5838 11.5H56.5938L57.9468 3.8H59.3328L61.5878 10.268L62.7318 3.8H63.7218L62.3688 11.5H61.0048L58.7058 5.076ZM68.3655 4.581C67.8155 4.581 67.3205 4.74233 66.8805 5.065C66.4405 5.38767 66.0921 5.835 65.8355 6.407C65.5788 6.979 65.4505 7.639 65.4505 8.387C65.4505 9.07633 65.6155 9.63733 65.9455 10.07C66.2755 10.5027 66.7301 10.719 67.3095 10.719C67.6468 10.719 67.9585 10.6347 68.2445 10.466C68.5305 10.2973 68.7725 10.0663 68.9705 9.773C69.1685 9.47967 69.3005 9.14967 69.3665 8.783L69.4655 8.244H67.8595L68.0025 7.419H70.5875L70.1585 9.894C70.1511 9.93067 70.1438 9.97467 70.1365 10.026C70.1365 10.07 70.1365 10.1177 70.1365 10.169C70.1365 10.367 70.1915 10.51 70.3015 10.598C70.4188 10.686 70.5801 10.73 70.7855 10.73L70.4225 11.555C69.6158 11.555 69.2125 11.1627 69.2125 10.378C68.9851 10.73 68.6918 11.027 68.3325 11.269C67.9731 11.511 67.5368 11.632 67.0235 11.632C66.5175 11.632 66.0628 11.511 65.6595 11.269C65.2635 11.0197 64.9481 10.664 64.7135 10.202C64.4861 9.73267 64.3725 9.17533 64.3725 8.53C64.3725 7.83333 64.4715 7.188 64.6695 6.594C64.8675 6 65.1461 5.48667 65.5055 5.054C65.8648 4.614 66.2901 4.273 66.7815 4.031C67.2801 3.789 67.8265 3.668 68.4205 3.668C68.8898 3.668 69.3041 3.734 69.6635 3.866C70.0228 3.99067 70.3528 4.152 70.6535 4.35L70.1035 5.186C69.8395 5.00267 69.5718 4.856 69.3005 4.746C69.0365 4.636 68.7248 4.581 68.3655 4.581Z" fill="#FFCF5C"/>
<path d="M7.99944 4.57142V7.99999L10.2852 9.14285M13.7137 7.99999C13.7137 11.1559 11.1554 13.7143 7.99944 13.7143C4.84353 13.7143 2.28516 11.1559 2.28516 7.99999C2.28516 4.84408 4.84353 2.28571 7.99944 2.28571C11.1554 2.28571 13.7137 4.84408 13.7137 7.99999Z" stroke="#FFCF5C" stroke-linecap="round" stroke-linejoin="round"/>
</svg>
